<svg xmlns="http://www.w3.org/2000/svg" width="164" height="153" viewBox="0 0 43.392 40.481"><defs><clipPath id="a"><path d="M0 89.967h42.813V0H0z"/></clipPath></defs><g clip-path="url(#a)" transform="matrix(.45114 0 0 -.44996 11.76 40.615)"><path d="M18.6 6.307a3.28 3.28 0 0 1 3.277-3.277 3.28 3.28 0 0 1 3.277 3.277 3.281 3.281 0 0 1-3.277 3.277A3.281 3.281 0 0 1 18.6 6.307" fill="#0077bd"/><path d="M22.206 85.38a.82.82 0 1 0-1.64 0 .82.82 0 0 0 1.64 0m2.458-3.033a.491.491 0 0 0 0-.984h-6.146a.493.493 0 0 0 0 .984zM39.74 77.39c.273 0 .492-.22.492-.492v-64.28a.49.49 0 0 0-.492-.49H3.48a.49.49 0 0 0-.49.49v64.28a.49.49 0 0 0 .49.492zM26.14 6.307a4.268 4.268 0 0 0-4.263-4.26 4.265 4.265 0 0 0-4.26 4.26 4.266 4.266 0 0 0 4.26 4.261 4.268 4.268 0 0 0 4.263-4.26m4.43 83.373H5.695a5.407 5.407 0 0 1-5.407-5.408v-6.987A.493.493 0 0 1 0 76.842v-1.787c0-.197.118-.366.287-.443v-2.079A.489.489 0 0 1 0 72.091v-1.788c0-.197.118-.365.287-.443V5.41A5.406 5.406 0 0 1 5.694 0h31.71a5.407 5.407 0 0 1 5.409 5.41v78.863a5.407 5.407 0 0 1-5.408 5.408h-1.236a.488.488 0 0 1-.442.286h-4.712a.489.489 0 0 1-.444-.286" fill="#0077bd"/><path d="M21.407 53.643c-4.775 0-8.66-3.885-8.66-8.66 0-4.774 3.885-8.661 8.66-8.661 4.774 0 8.659 3.887 8.659 8.66 0 4.776-3.885 8.66-8.659 8.66m0-17.792c-5.036 0-9.132 4.097-9.132 9.133 0 5.036 4.097 9.132 9.132 9.132 5.036 0 9.133-4.097 9.133-9.132 0-5.036-4.097-9.133-9.133-9.133m0 15.785a6.66 6.66 0 0 1-6.652-6.652 6.66 6.66 0 0 1 6.652-6.653 6.662 6.662 0 0 1 6.653 6.653c0 3.668-2.986 6.652-6.653 6.652m0-14.015c-4.059 0-7.361 3.304-7.361 7.362s3.302 7.36 7.361 7.36c4.059 0 7.362-3.301 7.362-7.36 0-4.06-3.303-7.362-7.362-7.362m5.431 7.363a5.431 5.431 0 1 0-10.864 0 5.431 5.431 0 0 0 10.864 0" fill="#0077bd"/></g></svg>