<svg xmlns="http://www.w3.org/2000/svg" width="163.305" height="154.232" viewBox="0 0 43.208 40.807"><defs><clipPath id="a"><path d="M0 85h90V0H0z"/></clipPath></defs><g clip-path="url(#a)" transform="matrix(.48009 0 0 -.48009 0 40.807)"><path d="M31.108 54.728l7.967-8.628.004.002a3.404 3.404 0 0 1 5.154.159v-.001l14.799 18.171h-.001a3.416 3.416 0 0 1-2.648 5.571 3.409 3.409 0 0 1-2.648-1.261l-.001.001-12.311-15.118-5.296 5.736-.003-.002a3.405 3.405 0 0 1-2.507 1.101 3.415 3.415 0 0 1-3.415-3.414c0-.895.346-1.705.908-2.315z" fill="#0077bd"/><path d="M85 30H5v50h80zM45 20a2.5 2.5 0 1 0 0 5 2.5 2.5 0 0 0 0-5m42.5 65h-85A2.5 2.5 0 0 1 0 82.5v-65A2.5 2.5 0 0 1 2.5 15h35l-5-9.999H26A1 1 0 0 1 25 4V1a1 1 0 0 1 1-1h38a1 1 0 0 1 1 1v3a1 1 0 0 1-1 1.001h-6.5L52.5 15h35a2.5 2.5 0 0 1 2.5 2.5v65a2.5 2.5 0 0 1-2.5 2.5" fill="#0077bd"/></g></svg>