<svg xmlns="http://www.w3.org/2000/svg" width="164" height="173" viewBox="0 0 43.392 45.773"><defs><clipPath id="a" clipPathUnits="userSpaceOnUse"><path d="M0 98.723h64.187V0H0z"/></clipPath></defs><g clip-path="url(#a)" transform="matrix(.46242 0 0 -.46242 7.654 45.68)"><path d="M32.639 40.724h3.821V21.555h-3.821zm-4.914 0h3.82V21.555h-3.82zm-4.915 0h3.819V21.555H22.81zm14.744 0h3.82V21.555h-3.82zm9.889 6.898v9.872c0 .927-.749 1.677-1.676 1.677H18.482c-.926 0-1.677-.75-1.677-1.677v-9.872c0-.925.751-1.676 1.677-1.676h27.286c.926 0 1.675.751 1.675 1.676M9.726 25.635v-1.981c0-.618.5-1.12 1.117-1.12h8.071a1.12 1.12 0 0 1 1.119 1.12v1.981c0 .617-.502 1.116-1.119 1.116h-8.071a1.116 1.116 0 0 1-1.117-1.116m34.428 0v-1.981c0-.618.501-1.12 1.119-1.12h8.07c.617 0 1.116.502 1.116 1.12v1.981c0 .617-.499 1.116-1.116 1.116h-8.07a1.117 1.117 0 0 1-1.119-1.116m-22.877-5.26H42.99v23.8H21.277zm28.739 36.321V43.649l9.17 2.048h-.905c-.619 0-1.119.499-1.119 1.118v9.313c0 .236.073.453.196.635zM14.172 42.502L3.305 44.929c-.409.091-.512.478-.395.768H1.117C.5 45.697 0 46.196 0 46.815v9.313c0 .617.5 1.117 1.117 1.117h1.758c-.052.312.134.669.558.666l10.739-.096v1.312h-2.375v11.14c0 2.396-1.775 4.35-4.146 4.609h-.615v23.847h50.019V74.876h-.52c-2.369-.26-4.145-2.214-4.145-4.609V59.128h-2.375v-1.312l10.739.096c.423.003.608-.354.556-.666h1.759c.618 0 1.118-.5 1.118-1.117v-9.313c0-.619-.5-1.118-1.118-1.118h-1.794c.118-.29.016-.677-.393-.768l-10.867-2.427v-5.12h2.375v-5.499h2.514v5.498h2.15V19.14H7.036v18.242h2.246v-5.498h2.515v5.498h2.375zm-9.171 3.195l9.171-2.048v13.047l-7.343.067c.124-.182.196-.398.196-.635v-9.313c0-.619-.501-1.118-1.118-1.118zm52.054 26.665V59.129h-2.15v11.138c0 1.074.785 1.954 1.777 2.095zM7.036 59.128v13.234h.468c.993-.141 1.778-1.021 1.778-2.095V59.128zm8.055-51.413V1.677C15.091.751 14.34 0 13.414 0H9.693c-.925 0-1.676.751-1.676 1.677v8.042l-.98.276v7.934h50.021V9.995l-.889-.252V1.677C56.169.751 55.418 0 54.493 0h-3.721c-.925 0-1.677.751-1.677 1.677V7.74l-2.25-.637H17.25z" fill="#0077bd"/></g></svg>